<?xml version="1.0" standalone="no"?>
<!DOCTYPE svg PUBLIC "-//W3C//DTD SVG 20010904//EN"
 "http://www.w3.org/TR/2001/REC-SVG-20010904/DTD/svg10.dtd">
<svg version="1.0" xmlns="http://www.w3.org/2000/svg"
 width="1240.000000pt" height="1216.000000pt" viewBox="0 0 1240.000000 1216.000000"
 preserveAspectRatio="xMidYMid meet">

<g transform="translate(0.000000,1216.000000) scale(0.100000,-0.100000)"
fill="#000000" stroke="none">
<path d="M6355 10919 c-80 -9 -149 -17 -268 -29 -54 -5 -102 -12 -105 -14 -4
-2 -46 -9 -92 -15 -95 -13 -162 -27 -232 -48 -26 -8 -85 -21 -131 -28 -57 -9
-108 -26 -158 -51 -41 -21 -76 -40 -79 -43 -3 -3 -16 -12 -30 -19 -29 -15
-228 -207 -277 -267 -73 -90 -98 -124 -149 -202 -30 -46 -65 -111 -78 -145
-13 -35 -52 -135 -86 -223 -33 -88 -72 -188 -85 -222 -31 -79 -52 -174 -98
-443 -19 -108 -26 -183 -26 -295 -1 -137 2 -211 9 -217 1 -2 4 -14 5 -28 7
-56 37 -177 53 -209 15 -31 25 -39 71 -61 14 -6 61 -83 97 -160 9 -19 34 -71
55 -115 103 -216 202 -381 311 -516 123 -154 184 -194 459 -304 170 -69 483
-172 574 -189 44 -8 95 -20 114 -25 19 -6 98 -20 175 -31 78 -12 157 -25 176
-30 70 -18 251 -30 318 -21 37 6 117 13 177 16 61 4 202 23 315 42 113 20 232
39 265 43 35 4 85 20 120 38 58 29 77 36 175 63 l45 13 -115 13 c-63 7 -171
23 -240 34 -69 12 -140 24 -159 27 -43 6 -121 84 -121 120 0 14 3 23 6 20 3
-4 21 4 40 17 19 13 84 40 145 60 173 58 270 135 419 335 165 221 314 520 385
775 12 44 31 103 42 130 40 97 76 221 83 285 5 36 14 109 21 163 15 112 3 248
-30 342 -27 77 -159 310 -215 381 -26 32 -70 88 -99 124 -29 36 -110 126 -182
200 -71 75 -153 160 -182 190 -63 68 -139 133 -214 185 -238 164 -271 185
-297 184 l-27 -1 30 -8 c17 -4 26 -8 20 -9 -5 0 1 -8 13 -17 12 -8 26 -13 31
-10 5 3 12 -1 15 -10 3 -8 10 -12 16 -9 5 3 10 -1 10 -10 0 -9 5 -13 10 -10 6
3 10 -4 11 -17 0 -22 1 -22 9 -3 8 19 9 19 9 -2 1 -14 7 -23 16 -23 8 0 24 -9
35 -20 12 -12 25 -18 29 -15 5 3 19 -6 32 -19 13 -13 28 -22 35 -19 6 2 14 -3
17 -11 4 -9 14 -16 22 -16 9 0 13 -4 10 -10 -3 -5 1 -10 9 -10 9 0 16 -7 16
-15 0 -8 6 -15 14 -15 16 0 29 -27 20 -41 -8 -13 6 -50 17 -44 5 3 6 0 3 -8
-6 -16 36 -105 67 -146 11 -13 19 -34 19 -47 0 -14 17 -39 46 -66 69 -64 116
-137 103 -160 -6 -10 -7 -27 -4 -37 5 -16 -1 -20 -32 -23 -21 -3 -40 -2 -43 1
-22 28 -112 63 -229 91 -66 15 -185 8 -226 -14 -38 -20 -79 -21 -99 -1 -19 19
-62 19 -116 0 -23 -8 -46 -13 -50 -10 -5 3 -41 0 -80 -6 -50 -7 -75 -8 -84 0
-9 7 -16 7 -24 -1 -8 -8 -13 -7 -18 5 -8 21 -34 22 -34 2 0 -20 -26 -19 -34 1
-5 14 -16 16 -66 11 -36 -4 -62 -3 -65 4 -5 7 -11 6 -20 -1 -11 -9 -22 -1 -52
39 -21 27 -49 54 -63 60 -38 15 -69 46 -81 80 -6 17 -14 29 -19 26 -4 -3 -13
8 -20 24 -6 16 -23 40 -37 53 -14 12 -34 40 -44 61 -16 30 -24 37 -39 32 -12
-4 -20 -2 -20 5 0 7 -14 10 -34 9 -19 -2 -38 0 -42 3 -4 4 -26 5 -49 1 -34 -4
-55 0 -101 22 -33 15 -90 33 -129 40 -38 8 -95 21 -125 29 -69 20 -129 20
-166 1 -24 -11 -38 -12 -68 -4 -34 9 -37 13 -31 37 3 15 25 45 49 68 24 23 45
45 47 50 2 5 26 26 52 48 83 66 118 107 112 130 -5 20 -5 20 6 -1 13 -25 41
-37 124 -50 61 -11 288 -10 315 1 47 18 173 37 354 51 39 4 73 8 76 10 22 13
216 45 279 46 86 0 78 7 -44 35 -65 16 -122 19 -305 19 -124 1 -252 -2 -285
-6z m-430 -98 c3 -5 0 -13 -6 -17 -7 -4 -9 -3 -5 4 3 5 0 13 -6 15 -9 4 -10 6
-1 6 6 1 14 -3 18 -8z m1525 -167 c0 -2 -7 -4 -15 -4 -8 0 -15 4 -15 10 0 5 7
7 15 4 8 -4 15 -8 15 -10z m-1742 -469 c123 -29 240 -108 327 -220 62 -79 68
-94 93 -200 29 -129 41 -223 36 -280 -8 -83 -42 -210 -85 -316 -23 -57 -41
-116 -41 -137 0 -20 -6 -59 -14 -86 -8 -27 -14 -60 -14 -73 0 -21 79 -140 121
-183 8 -8 22 -31 31 -50 15 -31 66 -100 112 -152 23 -26 85 -23 153 8 32 14
88 34 126 44 37 10 104 36 150 58 45 22 94 44 108 50 15 6 40 30 56 55 31 46
33 54 51 287 6 75 12 94 51 165 80 144 157 251 226 309 74 63 106 79 214 107
131 34 300 1 432 -83 73 -47 154 -131 186 -192 23 -45 26 -63 29 -200 6 -256
-27 -444 -110 -619 -135 -285 -180 -372 -277 -532 -10 -16 -37 -64 -60 -105
-52 -92 -109 -171 -166 -230 -23 -24 -43 -48 -43 -52 0 -13 -62 -78 -75 -78
-7 0 -18 -7 -25 -15 -7 -9 -15 -13 -17 -11 -3 2 -30 -5 -61 -16 -51 -19 -77
-21 -242 -19 -107 2 -208 8 -241 16 -48 11 -57 10 -65 -3 -16 -24 -52 -5 -74
39 -13 25 -27 39 -40 39 -11 0 -20 5 -20 10 0 6 -9 10 -19 10 -11 0 -23 5 -26
10 -3 6 -17 10 -31 10 -13 0 -24 4 -24 9 0 5 -13 12 -30 16 -16 4 -32 11 -35
16 -8 13 -65 11 -163 -5 -107 -17 -136 -10 -269 67 -78 44 -101 62 -93 71 7 9
4 25 -10 54 -11 23 -20 46 -20 52 0 5 -5 10 -10 10 -15 0 -50 63 -45 80 3 9
-4 19 -18 25 -12 6 -23 20 -25 33 -2 13 -11 26 -20 30 -9 3 -38 27 -64 54 -25
26 -52 48 -60 48 -7 0 -25 11 -40 25 -15 14 -34 25 -43 25 -8 0 -15 4 -15 9 0
5 -12 24 -26 41 -28 32 -86 65 -161 89 -24 8 -43 17 -43 22 0 6 -88 29 -170
44 -50 10 -137 52 -144 70 -3 9 -10 14 -15 11 -5 -3 -14 8 -21 24 -7 17 -16
30 -20 30 -4 0 -18 26 -30 58 -13 31 -29 64 -37 73 -7 8 -13 24 -13 35 0 11
-9 25 -20 32 -17 10 -20 23 -20 93 0 44 4 110 10 147 5 37 14 126 20 197 24
265 74 441 175 613 18 32 36 75 40 97 10 56 29 84 83 125 51 39 87 73 99 94
19 32 114 77 204 97 185 41 229 45 317 24z m775 -1315 c7 -27 -12 -90 -36
-117 -18 -20 -18 -23 -3 -38 9 -9 16 -20 16 -25 0 -16 -32 -20 -58 -6 -45 24
-123 119 -108 133 3 3 6 1 6 -5 0 -6 6 -9 14 -6 8 3 19 -3 26 -15 17 -32 73
-29 88 4 7 14 12 34 12 45 0 47 32 70 43 30z m-627 -1475 c6 -8 13 -12 17 -9
3 3 18 -1 34 -9 15 -8 45 -17 65 -20 20 -3 51 -16 68 -29 l32 -23 -29 -5 c-15
-3 -84 4 -153 16 -69 12 -129 19 -134 16 -5 -3 -6 0 -2 6 5 9 -7 12 -41 12
-32 0 -56 7 -73 20 -14 11 -31 20 -37 20 -7 0 -13 4 -13 9 0 4 28 9 62 10 34
1 65 4 68 7 10 11 125 -7 136 -21z"/>
<path d="M5689 9540 c-151 -15 -253 -110 -283 -263 -18 -90 -18 -105 8 -158
30 -64 76 -103 153 -130 103 -35 148 -22 207 63 54 79 80 179 81 311 l0 108
-42 40 c-23 21 -46 38 -50 38 -4 -1 -38 -5 -74 -9z m111 -139 c11 -22 13 -71
4 -95 -5 -12 -10 -13 -25 -5 -15 7 -19 21 -19 58 0 63 18 82 40 42z"/>
<path d="M7239 9127 c-20 -12 -43 -28 -52 -36 -49 -40 -136 -266 -144 -372 -8
-97 27 -155 110 -180 51 -16 194 5 240 35 39 26 75 97 113 225 26 87 27 99 16
159 -13 81 -50 137 -111 169 -56 29 -122 29 -172 0z m13 -137 c-3 -29 -40 -80
-58 -80 -23 0 -16 46 12 80 29 34 50 35 46 0z"/>
<path d="M7108 10838 c5 -5 16 -8 23 -6 8 3 3 7 -10 11 -17 4 -21 3 -13 -5z"/>
<path d="M7158 10818 c5 -5 16 -8 23 -6 8 3 3 7 -10 11 -17 4 -21 3 -13 -5z"/>
<path d="M7217 10789 c7 -7 15 -10 18 -7 3 3 -2 9 -12 12 -14 6 -15 5 -6 -5z"/>
<path d="M3600 10580 c0 -5 6 -10 14 -10 8 0 17 -4 21 -9 3 -6 -11 -8 -37 -5
-23 3 -46 10 -49 16 -10 15 -109 4 -150 -17 -19 -10 -71 -55 -116 -101 -71
-73 -89 -99 -149 -219 -39 -78 -67 -148 -67 -165 0 -20 -3 -26 -9 -18 -8 14
-12 0 -9 -34 1 -9 -9 -24 -23 -34 -24 -15 -39 -43 -16 -29 20 12 9 -8 -15 -30
-15 -12 -27 -31 -28 -43 -1 -12 -5 -22 -10 -22 -5 0 -6 -8 -3 -17 4 -10 4 -14
0 -10 -9 9 -105 -206 -139 -311 -13 -40 -31 -107 -41 -148 -9 -41 -32 -112
-51 -157 -101 -242 -179 -483 -208 -645 -22 -124 -32 -508 -16 -608 26 -158
112 -364 211 -504 31 -44 143 -162 267 -284 117 -115 268 -274 335 -353 67
-78 125 -143 130 -143 4 0 8 6 8 14 0 8 21 28 48 45 87 56 256 241 362 396 40
59 85 122 101 139 33 38 105 181 142 281 72 197 79 248 53 391 -18 98 -29 240
-16 204 9 -25 6 31 -6 108 -4 23 -2 32 5 27 6 -3 11 1 11 9 0 8 10 22 22 30
27 19 17 21 -13 4 -18 -11 -23 -10 -37 11 -24 33 -53 61 -96 95 -44 33 -122
148 -171 253 -69 143 -101 306 -120 598 -7 104 8 391 25 473 10 48 32 314 35
412 2 80 -21 261 -34 270 -7 3 -9 13 -6 22 8 20 -75 108 -103 108 -11 0 -24 5
-27 10 -3 6 -10 10 -16 10 -5 0 -9 -4 -9 -10z m7 -57 c31 -24 50 -53 34 -53
-4 0 -16 10 -27 21 -24 26 -62 44 -102 48 -7 0 -10 6 -7 12 10 15 65 0 102
-28z m160 -335 c-3 -7 -5 -2 -5 12 0 14 2 19 5 13 2 -7 2 -19 0 -25z m-492
-530 c-2 -57 -5 -112 -7 -122 -7 -42 24 -23 76 48 31 42 58 76 60 76 11 0 45
-69 51 -102 6 -29 12 -38 27 -38 11 0 18 -5 15 -12 -2 -7 6 -33 19 -58 13 -25
24 -57 24 -71 0 -15 7 -32 15 -39 31 -25 15 -207 -21 -236 -19 -16 -2 -124 36
-219 18 -44 41 -101 51 -127 10 -27 39 -87 63 -135 80 -156 122 -275 158 -443
59 -280 60 -518 2 -701 -20 -64 -35 -92 -71 -130 -25 -27 -52 -49 -60 -49 -7
0 -16 -6 -19 -14 -3 -8 -24 -18 -47 -21 -23 -4 -49 -12 -58 -18 -20 -12 -49 5
-49 29 0 19 -7 18 -32 -6 -27 -25 -148 -30 -148 -6 0 9 -12 16 -27 18 -19 2
-33 12 -43 34 -16 31 -34 55 -58 77 -41 37 -132 131 -132 137 0 3 -13 16 -30
28 -31 24 -63 75 -53 86 4 3 -1 6 -9 6 -21 0 -47 30 -27 31 8 0 4 4 -8 9 -13
5 -23 14 -23 19 0 5 -20 33 -45 62 -25 29 -45 58 -45 64 0 6 -10 26 -23 45
-12 19 -33 62 -46 95 -12 33 -34 89 -49 124 -42 105 -41 178 9 465 10 60 19
111 19 113 0 2 7 3 15 3 8 0 15 9 15 20 0 29 47 77 87 91 20 6 39 22 48 40 9
16 20 29 25 29 6 0 10 10 10 23 0 13 5 28 12 35 7 7 18 39 24 72 7 32 19 74
27 92 9 18 18 58 21 88 4 30 17 87 30 125 13 39 32 97 41 130 9 33 27 89 40
125 12 36 32 98 44 138 20 63 25 72 46 72 l24 0 -4 -102z"/>
<path d="M5450 7047 c-3 -3 -40 -8 -83 -12 -64 -5 -177 -24 -302 -50 -28 -5
-182 -52 -230 -69 -45 -16 -46 -26 -13 -82 17 -29 25 -34 42 -29 136 46 380
96 528 110 202 18 490 9 659 -21 46 -8 93 -16 104 -18 11 -2 27 -5 35 -8 8 -3
51 -13 95 -23 44 -9 94 -23 110 -31 17 -7 57 -20 90 -30 33 -9 80 -27 105 -39
25 -13 64 -28 88 -35 23 -7 42 -16 42 -20 0 -3 25 -17 57 -30 31 -13 65 -32
75 -42 10 -10 23 -18 29 -18 7 0 36 -16 65 -35 29 -19 57 -35 63 -35 5 0 14
-6 18 -14 4 -8 11 -14 14 -13 4 1 40 -23 80 -54 41 -30 82 -58 92 -62 9 -3 17
-10 17 -15 0 -5 17 -21 38 -35 44 -31 170 -152 229 -222 24 -28 52 -59 63 -71
11 -12 20 -24 20 -29 0 -4 13 -26 28 -49 42 -62 89 -165 108 -237 20 -75 29
-88 52 -84 9 2 27 4 38 4 20 1 21 4 12 43 -5 23 -13 47 -17 53 -4 5 -18 39
-30 75 -13 36 -29 72 -36 80 -7 8 -20 31 -29 50 -15 33 -98 147 -156 215 -65
76 -201 205 -284 270 -22 17 -57 45 -80 64 -23 18 -51 38 -63 44 -13 6 -23 13
-23 17 0 14 -248 168 -340 211 -25 12 -47 25 -50 28 -3 4 -25 15 -50 25 -25
10 -58 24 -75 32 -75 34 -239 87 -325 104 -52 11 -106 22 -120 25 -125 30
-365 59 -515 62 -94 3 -172 2 -175 0z"/>
<path d="M4610 6835 c-47 -17 -105 -40 -129 -51 l-44 -19 39 -38 c21 -20 45
-37 52 -37 15 0 160 50 204 70 26 12 26 13 10 39 -9 14 -19 28 -23 31 -3 3
-10 12 -15 21 -8 13 -19 11 -94 -16z"/>
<path d="M4275 6706 c-85 -33 -135 -55 -135 -61 0 -3 24 -21 53 -40 l54 -36
79 31 c118 45 116 43 64 89 -25 22 -47 40 -50 40 -3 0 -32 -10 -65 -23z"/>
<path d="M8591 6683 c-35 -78 -117 -167 -241 -263 -131 -101 -257 -244 -313
-355 -95 -188 -190 -412 -202 -476 -4 -20 -2 -70 4 -110 5 -41 12 -133 15
-204 3 -72 10 -155 15 -185 5 -30 15 -98 21 -150 21 -167 70 -462 95 -565 32
-135 48 -292 40 -395 -10 -138 -9 -137 -60 -143 -25 -2 -101 -31 -172 -65 -71
-33 -166 -76 -213 -95 -47 -19 -128 -58 -181 -85 -53 -28 -120 -58 -150 -67
-30 -9 -94 -29 -144 -45 -49 -16 -119 -32 -155 -35 -36 -4 -99 -12 -140 -20
-136 -25 -232 -34 -485 -47 -340 -18 -591 -16 -835 5 -385 34 -801 92 -835
118 -5 4 -32 10 -60 14 -27 4 -95 20 -151 36 -55 15 -136 38 -180 49 -43 12
-99 33 -124 48 -123 73 -198 84 -119 18 24 -21 27 -27 15 -32 -9 -3 -14 -14
-13 -23 3 -20 41 -71 52 -71 4 0 22 -15 39 -33 46 -48 108 -84 346 -200 257
-124 268 -130 345 -156 54 -18 152 -61 194 -85 9 -5 29 -25 46 -44 28 -33 28
-35 10 -48 -18 -13 -18 -14 5 -14 28 0 20 -10 -30 -37 -42 -24 -52 -53 -18
-53 19 -1 18 -3 -12 -17 -19 -9 -50 -15 -67 -14 -18 2 -33 0 -33 -2 0 -7 112
-26 222 -37 102 -11 364 -66 468 -97 50 -16 110 -22 253 -28 103 -4 213 -11
245 -17 31 -5 127 -12 212 -15 153 -4 156 -4 205 22 47 26 59 27 258 35 115 5
211 11 214 13 2 3 -15 8 -39 12 -24 4 -53 13 -66 19 -16 9 -43 10 -90 4 -234
-28 -782 -6 -782 32 0 4 -9 10 -20 13 -11 3 -20 14 -20 25 0 23 25 46 40 37 5
-3 37 6 69 20 33 15 74 28 93 30 18 2 74 8 123 14 255 31 563 47 581 29 3 -4
12 -4 20 -1 19 7 74 -16 74 -32 0 -18 109 -27 188 -15 226 32 297 45 380 66
52 14 107 31 123 39 16 9 31 15 34 15 7 -1 69 31 75 39 3 3 25 16 50 29 25 13
60 33 79 44 32 20 33 20 29 2 -2 -11 -13 -20 -26 -22 -12 -2 -20 -7 -17 -12 5
-9 -63 -70 -78 -70 -4 0 -18 -9 -30 -21 -12 -11 -31 -25 -42 -30 -11 -5 -27
-13 -35 -18 -51 -32 -141 -63 -204 -70 -65 -8 -86 -14 -136 -43 -29 -16 -51
-21 -315 -72 l-130 -25 77 2 c42 1 71 -1 65 -5 -7 -4 17 -7 53 -7 50 1 59 3
40 10 -23 8 -22 8 8 5 17 -1 32 1 32 6 0 4 10 8 23 8 18 0 19 -2 7 -10 -15
-11 5 -8 70 7 14 4 31 5 38 4 6 -1 12 3 12 9 0 6 6 10 13 9 22 -3 42 1 57 11
13 9 13 11 0 20 -11 7 -7 8 16 4 25 -5 33 -1 47 19 12 19 28 27 68 32 63 9
127 36 244 106 107 62 267 181 288 212 23 35 66 177 73 240 7 62 23 87 56 87
11 0 22 8 25 20 6 24 26 25 83 5 79 -28 158 -14 217 38 48 42 164 200 201 274
16 32 41 90 56 128 15 39 40 102 56 140 43 105 106 294 125 372 9 37 37 140
62 228 72 258 76 284 79 545 2 129 6 278 9 330 6 89 5 102 -29 219 -61 207
-146 396 -301 666 -64 112 -147 225 -164 225 -4 0 -13 -12 -20 -27z m20 -235
c0 -7 2 -26 4 -43 2 -16 -5 -49 -15 -73 -22 -49 -26 -116 -10 -158 8 -21 7
-37 -4 -65 -18 -45 -22 -116 -13 -266 6 -94 4 -114 -9 -127 -11 -12 -15 -33
-13 -78 2 -37 -2 -73 -10 -86 -7 -13 -10 -26 -7 -29 3 -3 -4 -17 -14 -31 -18
-22 -20 -40 -20 -156 1 -93 4 -136 14 -148 18 -24 33 -23 47 4 l12 22 18 -23
c18 -22 47 -102 54 -146 2 -11 13 -58 24 -103 27 -104 40 -351 23 -438 -7 -33
-14 -75 -16 -94 -3 -19 -16 -67 -30 -106 -14 -39 -26 -81 -26 -94 0 -12 -9
-29 -20 -38 -12 -10 -22 -28 -23 -41 -1 -14 -10 -27 -25 -32 -13 -5 -21 -13
-17 -18 8 -15 -47 -37 -76 -31 -36 7 -91 50 -85 66 4 10 -3 12 -24 8 -23 -5
-35 0 -64 28 -20 19 -36 44 -36 56 0 11 -4 22 -10 24 -10 3 -23 87 -40 278 -6
63 -15 132 -20 155 -24 109 -31 161 -44 290 -7 77 -17 149 -23 160 -23 44 -30
85 -27 156 6 136 13 213 29 319 9 58 18 121 20 140 8 66 35 155 70 226 19 40
35 78 35 87 0 8 7 20 15 27 8 6 17 22 21 33 4 12 27 47 53 77 63 75 262 280
273 280 4 0 8 -6 9 -12z m-3574 -3604 c-3 -3 -12 -4 -19 -1 -8 3 -5 6 6 6 11
1 17 -2 13 -5z m2236 -71 c-7 -2 -21 -2 -30 0 -10 3 -4 5 12 5 17 0 24 -2 18
-5z"/>
<path d="M3979 6585 c-51 -18 -122 -56 -116 -61 2 -2 35 -20 72 -39 l67 -34
74 37 c41 20 74 39 73 42 -1 11 -100 70 -116 69 -10 0 -34 -6 -54 -14z"/>
<path d="M3665 6428 c-38 -22 -72 -43 -75 -45 -7 -6 21 -21 67 -35 24 -7 43
-16 43 -21 0 -4 4 -6 9 -2 5 3 12 1 16 -5 3 -5 13 -10 22 -10 16 0 153 81 153
90 0 10 -124 70 -145 70 -11 0 -51 -19 -90 -42z"/>
<path d="M4720 6367 c27 -27 275 -245 360 -317 29 -25 130 -112 224 -194 94
-82 179 -156 188 -164 19 -16 18 -16 178 100 30 22 73 51 95 65 22 14 42 29
45 33 3 3 37 28 75 54 39 26 103 71 142 99 40 29 162 115 272 192 110 77 200
144 200 149 1 5 -9 1 -21 -7 -13 -9 -106 -66 -208 -128 -102 -61 -212 -129
-245 -149 -33 -21 -96 -60 -140 -86 -44 -26 -105 -63 -135 -82 -30 -19 -71
-44 -90 -57 -19 -12 -54 -34 -77 -48 l-42 -26 -53 35 c-29 20 -55 39 -58 43
-3 5 -15 13 -28 20 -12 6 -66 43 -120 81 -53 38 -134 96 -180 127 -46 32 -92
66 -103 76 -10 9 -22 17 -25 17 -4 0 -39 25 -79 55 -41 30 -78 55 -83 55 -6 0
-12 3 -14 8 -1 4 -25 22 -53 40 -39 26 -44 28 -25 9z"/>
<path d="M3514 5994 c-11 -74 2 -341 21 -419 9 -38 17 -74 18 -80 1 -5 5 -12
8 -15 3 -3 13 -35 23 -71 10 -37 24 -79 32 -94 8 -15 14 -33 14 -41 0 -19 9
-23 122 -44 57 -10 140 -27 186 -36 45 -10 85 -14 88 -11 4 3 2 27 -2 54 l-9
47 -95 18 c-138 25 -215 40 -218 43 -2 2 -10 27 -18 56 -8 30 -17 61 -19 69
-31 100 -38 157 -38 352 l-1 206 -36 6 c-66 11 -68 9 -76 -40z"/>
<path d="M4080 5938 c0 -13 -3 -46 -6 -74 l-7 -52 44 -6 c24 -4 56 -9 71 -12
25 -5 26 -3 31 48 3 29 6 62 8 72 4 20 -2 22 -103 40 -35 6 -38 5 -38 -16z"/>
<path d="M4075 5679 c-8 -53 11 -368 27 -456 11 -61 11 -62 50 -68 22 -4 41
-5 43 -3 3 2 0 85 -6 183 -6 99 -8 224 -4 278 6 90 5 97 -12 97 -10 0 -35 3
-55 6 l-36 6 -7 -43z"/>
<path d="M4298 5634 l-3 -53 40 -10 c22 -5 97 -17 168 -27 70 -9 127 -20 127
-24 0 -4 -66 -64 -147 -133 -198 -167 -195 -163 -187 -219 l6 -46 97 -17 c53
-9 110 -21 126 -25 34 -11 217 -41 221 -37 2 1 6 25 9 54 9 60 18 55 -144 78
-110 16 -161 29 -161 40 0 7 60 60 135 121 33 27 65 53 71 59 7 5 46 36 88 68
74 57 76 59 76 101 l0 44 -67 11 c-38 6 -147 22 -243 36 -96 13 -182 26 -192
29 -13 3 -17 -6 -20 -50z"/>
<path d="M5826 5613 c-21 -37 -47 -80 -57 -95 -11 -15 -19 -30 -19 -32 0 -3
-17 -34 -37 -69 -21 -35 -45 -75 -53 -89 -38 -67 -143 -243 -196 -328 -44 -70
-43 -80 4 -80 20 0 46 -3 57 -5 15 -4 26 4 43 32 12 21 38 65 58 98 20 33 48
82 62 109 15 27 32 56 37 65 9 14 69 120 130 229 11 19 26 38 34 40 8 3 11 0
8 -6 -4 -5 -2 -23 3 -38 6 -16 21 -78 34 -139 12 -60 27 -119 31 -129 8 -18 5
-19 -66 -13 -41 4 -87 9 -104 12 -28 6 -32 2 -58 -44 -18 -33 -24 -52 -16 -56
6 -4 70 -15 142 -24 l132 -16 12 -50 c37 -155 34 -149 91 -159 29 -5 55 -6 59
-2 3 3 1 27 -6 54 -7 26 -24 99 -38 162 -14 63 -28 122 -31 130 -3 8 -7 20 -7
25 -1 6 -5 17 -8 25 -3 8 -16 65 -27 125 -12 61 -25 115 -29 120 -4 6 -16 54
-26 108 -14 73 -23 97 -34 97 -9 0 -32 3 -51 6 -34 5 -36 4 -74 -63z"/>
<path d="M6356 5597 c-7 -23 -27 -155 -51 -325 -13 -96 -31 -210 -39 -255 -8
-45 -18 -110 -21 -143 l-7 -61 47 -7 c26 -4 50 -5 53 -1 7 7 30 146 77 475 15
102 31 194 35 205 17 40 21 105 8 109 -37 12 -100 13 -102 3z"/>
<path d="M4967 5583 c-3 -5 -8 -29 -12 -55 -8 -53 -16 -48 105 -69 36 -6 72
-12 80 -13 8 -2 38 -6 65 -10 116 -17 113 -6 65 -268 -17 -90 -25 -94 -166
-73 -86 12 -113 20 -126 36 -23 27 -23 51 1 80 l19 23 113 -17 c62 -9 116 -14
120 -9 3 4 9 27 12 52 l6 46 -77 14 c-42 7 -109 15 -148 17 -69 4 -73 3 -108
-27 -39 -35 -56 -80 -56 -153 0 -110 42 -147 198 -171 246 -38 295 -13 322
169 6 44 16 90 22 102 6 12 11 62 12 111 l1 90 -35 31 c-39 34 -70 46 -145 56
-27 3 -96 15 -153 26 -119 22 -110 21 -115 12z"/>
<path d="M7560 5417 c0 -6 -29 -165 -35 -194 -4 -16 -13 -23 -30 -23 -24 0
-28 -6 -40 -67 -5 -26 -3 -33 9 -33 9 0 16 -8 16 -20 0 -23 -76 -213 -121
-302 -16 -32 -29 -62 -29 -67 0 -5 20 -11 44 -12 l44 -4 53 105 c29 57 67 141
86 185 l33 80 54 -2 c52 -2 54 -1 59 26 3 16 9 40 13 55 6 25 4 26 -35 26 -26
0 -44 5 -47 14 -3 7 4 60 15 117 11 57 19 104 18 105 -6 5 -107 15 -107 11z"/>
<path d="M6635 5322 c-96 -16 -122 -62 -156 -282 -20 -128 -18 -194 6 -220 35
-39 64 -47 252 -63 l132 -12 10 25 c18 46 22 68 14 73 -4 3 -71 11 -148 17
-131 11 -141 14 -162 38 -15 17 -19 31 -13 41 4 9 16 65 25 124 22 130 41 163
89 152 17 -4 42 -8 56 -10 63 -9 154 -26 162 -31 4 -3 8 -21 8 -39 0 -53 -31
-69 -111 -56 -35 5 -83 12 -106 16 l-42 5 -11 -42 c-6 -24 -13 -48 -15 -54 -2
-7 31 -15 90 -23 182 -22 231 -11 277 62 49 79 48 155 -3 206 -35 35 -28 34
-284 70 -27 3 -59 5 -70 3z"/>
<path d="M7193 5211 c-42 -26 -77 -83 -92 -148 -7 -29 -34 -115 -61 -193 l-47
-140 53 0 c33 0 54 4 54 11 0 6 7 26 15 43 9 18 37 95 63 172 26 76 52 145 56
153 7 10 26 12 75 9 l67 -5 11 46 c6 25 8 49 4 54 -4 4 -43 10 -87 13 -68 5
-83 3 -111 -15z"/>
<path d="M3727 5084 c-11 -11 -8 -34 4 -34 5 0 8 4 4 9 -3 5 -1 12 4 16 5 3
15 -3 21 -12 10 -17 11 -16 8 2 -3 20 -28 32 -41 19z"/>
<path d="M3802 5068 c-15 -15 -16 -38 -2 -38 6 0 10 7 10 15 0 8 5 15 10 15 6
0 10 5 10 10 0 14 -13 13 -28 -2z"/>
<path d="M3908 5043 c7 -3 16 -2 19 1 4 3 -2 6 -13 5 -11 0 -14 -3 -6 -6z"/>
<path d="M3771 5027 c-1 -13 -7 -16 -26 -11 -14 3 -25 2 -25 -4 0 -5 16 -12
35 -14 37 -4 38 -4 25 27 -7 17 -9 18 -9 2z"/>
<path d="M3950 5030 c0 -13 11 -13 30 0 12 8 11 10 -7 10 -13 0 -23 -4 -23
-10z"/>
<path d="M3890 5012 c0 -15 5 -19 20 -15 12 3 19 6 18 7 -2 1 -11 8 -20 15
-16 12 -18 11 -18 -7z"/>
<path d="M3810 5014 c0 -18 27 -36 47 -31 14 4 14 5 -4 6 -12 0 -27 9 -32 19
-6 9 -11 12 -11 6z"/>
<path d="M4000 5004 c0 -11 -6 -14 -20 -9 -15 5 -20 2 -20 -13 0 -18 3 -19 25
-9 21 10 37 47 20 47 -3 0 -5 -7 -5 -16z"/>
<path d="M4020 4995 c0 -8 4 -15 10 -15 5 0 7 7 4 15 -4 8 -8 15 -10 15 -2 0
-4 -7 -4 -15z"/>
<path d="M4110 4999 c0 -5 9 -9 20 -9 11 0 20 2 20 4 0 2 -9 6 -20 9 -11 3
-20 1 -20 -4z"/>
<path d="M3728 4983 c7 -3 16 -2 19 1 4 3 -2 6 -13 5 -11 0 -14 -3 -6 -6z"/>
<path d="M4224 4971 c20 -22 26 -25 26 -13 0 4 -10 13 -22 21 -23 14 -23 14
-4 -8z"/>
<path d="M3762 4974 c4 -3 12 -6 20 -8 7 -1 18 -5 24 -8 6 -4 30 -10 52 -14
64 -10 50 10 -16 24 -64 13 -88 15 -80 6z"/>
<path d="M3908 4973 c7 -3 16 -2 19 1 4 3 -2 6 -13 5 -11 0 -14 -3 -6 -6z"/>
<path d="M4150 4965 c0 -8 2 -15 4 -15 2 0 6 7 10 15 3 8 1 15 -4 15 -6 0 -10
-7 -10 -15z"/>
<path d="M4120 4945 c0 -14 2 -25 4 -25 2 0 6 11 8 25 3 14 1 25 -3 25 -5 0
-9 -11 -9 -25z"/>
<path d="M4285 4960 c-3 -5 -1 -10 4 -10 6 0 11 5 11 10 0 6 -2 10 -4 10 -3 0
-8 -4 -11 -10z"/>
<path d="M4080 4951 c0 -5 -8 -12 -17 -14 -14 -4 -12 -5 5 -6 13 -1 22 5 22
14 0 8 -2 15 -5 15 -3 0 -5 -4 -5 -9z"/>
<path d="M4323 4915 c0 -27 2 -38 4 -22 2 15 2 37 0 50 -2 12 -4 0 -4 -28z"/>
<path d="M4362 4908 c-2 -44 0 -48 21 -47 16 1 17 3 5 6 -12 3 -18 17 -21 46
l-4 42 -1 -47z"/>
<path d="M3918 4933 c6 -2 18 -2 25 0 6 3 1 5 -13 5 -14 0 -19 -2 -12 -5z"/>
<path d="M4417 4926 c-3 -8 0 -22 7 -32 11 -15 12 -13 8 14 -5 36 -7 38 -15
18z"/>
<path d="M4005 4917 c28 -5 52 -13 55 -17 3 -4 59 -18 125 -31 66 -13 122 -27
125 -30 3 -3 68 -18 145 -33 152 -30 153 -30 175 -39 8 -3 65 -13 125 -22 61
-9 117 -20 125 -23 8 -3 22 -6 30 -7 8 -1 40 -7 70 -13 30 -6 109 -19 175 -27
66 -9 129 -20 140 -25 11 -5 97 -19 190 -30 94 -12 179 -25 191 -30 11 -4 115
-18 230 -30 115 -13 216 -25 224 -28 8 -3 29 -7 45 -8 188 -19 271 -25 311
-21 36 2 29 4 -28 5 -42 1 -79 6 -82 10 -2 4 -24 9 -48 10 -24 2 -108 9 -188
17 -80 8 -174 17 -210 21 -36 3 -72 8 -80 11 -22 9 -28 10 -238 37 -106 14
-197 28 -202 31 -4 3 -84 16 -177 30 -92 13 -179 27 -193 31 -14 3 -92 17
-175 30 -82 13 -159 28 -170 33 -11 5 -38 12 -60 16 -97 14 -213 38 -250 51
-22 7 -80 21 -130 29 -49 9 -94 20 -100 24 -5 5 -17 9 -25 9 -8 1 -42 8 -75
16 -33 9 -69 15 -80 15 -11 -1 3 -6 30 -12z"/>
<path d="M4458 4903 c-4 -33 1 -63 11 -63 4 0 8 20 10 45 2 49 -14 63 -21 18z"/>
<path d="M4497 4883 c-4 -21 -2 -42 5 -50 12 -15 28 -17 28 -3 0 6 -7 10 -15
10 -8 0 -15 7 -15 15 0 8 4 15 10 15 5 0 7 7 3 16 -3 9 0 20 8 25 11 7 11 9
-2 9 -11 0 -18 -12 -22 -37z"/>
<path d="M4208 4903 c7 -3 16 -2 19 1 4 3 -2 6 -13 5 -11 0 -14 -3 -6 -6z"/>
<path d="M4564 4876 c-9 -36 12 -66 44 -65 l27 2 -27 4 c-29 5 -43 31 -33 63
3 11 4 20 1 20 -3 0 -8 -11 -12 -24z"/>
<path d="M4652 4860 c1 -17 6 -30 14 -30 7 0 16 -9 19 -21 4 -11 9 -18 12 -15
3 2 -2 19 -11 37 -9 18 -16 38 -16 46 0 7 -4 13 -9 13 -5 0 -9 -13 -9 -30z"/>
<path d="M4686 4864 c-5 -14 -4 -15 9 -4 17 14 19 20 6 20 -5 0 -12 -7 -15
-16z"/>
<path d="M4741 4854 c0 -11 3 -14 6 -6 3 7 2 16 -1 19 -3 4 -6 -2 -5 -13z"/>
<path d="M4766 4835 c-9 -14 -21 -23 -26 -20 -5 3 -11 1 -14 -4 -4 -5 -1 -13
5 -17 6 -3 22 6 35 22 13 16 23 23 24 17 0 -22 20 -14 20 7 0 28 -24 25 -44
-5z"/>
<path d="M4830 4839 c0 -11 5 -17 10 -14 6 3 10 13 10 21 0 8 -4 14 -10 14 -5
0 -10 -9 -10 -21z"/>
<path d="M4886 4842 c-3 -5 -2 -20 2 -33 8 -20 9 -20 15 -5 8 21 -7 54 -17 38z"/>
<path d="M4855 4809 c-4 -6 -13 -8 -21 -5 -10 4 -14 -3 -14 -21 l0 -27 30 29
c17 16 30 30 30 32 0 8 -20 2 -25 -8z"/>
<path d="M5030 4800 c6 -11 13 -20 15 -20 3 0 5 9 5 20 0 11 -7 20 -15 20 -13
0 -14 -4 -5 -20z"/>
<path d="M4960 4779 c0 -17 4 -28 10 -24 6 3 10 17 10 31 0 13 -4 24 -10 24
-5 0 -10 -14 -10 -31z"/>
<path d="M5083 4803 c-7 -2 -13 -10 -13 -16 0 -8 4 -7 12 1 29 29 72 3 57 -35
-9 -25 -38 -30 -57 -11 -8 8 -12 8 -12 1 0 -6 13 -15 28 -21 36 -12 62 5 62
41 0 36 -39 56 -77 40z"/>
<path d="M4785 4790 c-3 -5 -1 -10 4 -10 6 0 11 5 11 10 0 6 -2 10 -4 10 -3 0
-8 -4 -11 -10z"/>
<path d="M5190 4790 c0 -8 -3 -33 -6 -55 l-7 -40 30 28 c37 35 43 34 44 -5 l1
-33 7 35 c4 20 10 41 14 47 15 23 -11 22 -33 -2 -28 -30 -44 -32 -37 -6 2 10
1 25 -4 32 -7 12 -9 11 -9 -1z"/>
<path d="M5304 4755 c-25 -39 -6 -76 38 -73 l33 1 -32 4 c-21 3 -34 11 -38 24
-7 22 10 49 32 49 8 0 11 5 8 10 -10 16 -24 11 -41 -15z"/>
<path d="M5025 4757 c-4 -10 -5 -21 -1 -24 10 -10 18 4 13 24 -4 17 -4 17 -12
0z"/>
<path d="M5403 4738 c-1 -13 -5 -33 -8 -45 -6 -27 10 -31 20 -6 6 16 8 15 25
-7 10 -14 22 -21 26 -17 4 4 2 7 -5 7 -7 0 -9 5 -6 10 3 6 1 10 -4 10 -19 0
-12 28 11 44 12 9 18 16 12 16 -5 0 -20 -7 -32 -16 -21 -14 -22 -14 -22 5 0
28 -15 27 -17 -1z"/>
<path d="M5502 4728 c-26 -26 0 -88 37 -88 36 0 58 54 36 90 -9 14 -58 13 -73
-2z m63 -33 c0 -24 -5 -31 -24 -33 -31 -5 -45 11 -37 43 5 21 12 26 34 23 23
-2 27 -8 27 -33z"/>
<path d="M5616 4699 c-11 -56 -8 -69 17 -69 20 1 21 2 5 14 -25 18 -22 26 8
26 21 0 24 -3 19 -21 -5 -15 -3 -20 6 -17 15 5 22 88 8 88 -6 0 -9 -8 -7 -17
2 -12 -4 -19 -19 -21 -28 -4 -31 22 -5 37 15 9 15 10 -4 11 -16 0 -23 -8 -28
-31z"/>
<path d="M5725 4696 c-5 -6 -11 -18 -13 -25 -4 -21 26 -61 47 -61 21 0 51 30
51 51 0 17 -19 39 -34 39 -5 0 -2 -6 8 -13 33 -24 -9 -84 -44 -62 -14 9 -13
62 2 67 7 3 8 7 3 10 -6 3 -14 1 -20 -6z"/>
<path d="M5880 4660 c-12 -22 2 -60 21 -60 6 0 3 7 -5 16 -20 19 -20 23 1 46
9 10 11 18 5 18 -6 0 -16 -9 -22 -20z"/>
<path d="M5947 4669 c7 -7 15 -10 18 -7 3 3 -2 9 -12 12 -14 6 -15 5 -6 -5z"/>
<path d="M5985 4629 c-10 -56 -1 -59 12 -4 6 25 7 45 2 45 -4 0 -10 -18 -14
-41z"/>
<path d="M6035 4661 c16 -6 19 -15 16 -47 -4 -50 4 -41 13 14 6 41 6 42 -21
41 -24 0 -25 -1 -8 -8z"/>
<path d="M6130 4645 c7 -9 15 -13 17 -11 7 7 -7 26 -19 26 -6 0 -6 -6 2 -15z"/>
<path d="M3797 4639 c-27 -16 -49 -68 -42 -98 3 -14 33 -61 65 -103 92 -121
93 -103 -10 -205 -77 -76 -90 -93 -90 -122 0 -49 28 -91 62 -91 18 0 28 5 28
14 0 8 12 24 28 35 15 12 41 33 57 47 63 53 103 84 107 84 9 0 188 -211 188
-221 0 -5 6 -9 13 -8 6 1 20 -1 30 -6 30 -13 71 25 75 67 3 31 -5 46 -57 109
-33 41 -71 85 -84 99 -48 49 -45 62 30 124 37 31 81 68 97 81 16 14 32 25 37
25 5 0 9 7 9 15 0 8 5 15 10 15 6 0 10 12 10 26 0 32 -50 84 -80 84 -10 0 -72
-43 -137 -95 -65 -52 -120 -95 -123 -94 -9 1 -112 128 -140 173 -15 24 -35 46
-45 49 -20 8 -16 9 -38 -4z"/>
<path d="M6195 4634 c-24 -24 -19 -63 10 -76 19 -8 28 -9 37 0 8 8 6 9 -9 6
-21 -6 -35 8 -40 38 -3 22 28 40 48 27 21 -13 32 -11 18 4 -17 18 -46 18 -64
1z"/>
<path d="M6098 4609 l-18 -31 28 3 c15 2 33 0 40 -4 8 -6 12 -1 12 17 0 14 -5
26 -11 26 -5 0 -7 -4 -4 -10 3 -5 -3 -10 -15 -10 -17 0 -20 4 -15 20 9 29 3
25 -17 -11z"/>
<path d="M6291 4599 c-12 -24 -21 -43 -21 -44 0 -1 14 1 31 3 20 3 35 -1 41
-9 8 -12 9 -11 5 1 -2 8 -13 16 -25 18 -23 4 -31 35 -12 47 6 3 10 -1 10 -9 0
-9 5 -16 11 -16 14 0 7 42 -8 47 -7 3 -21 -15 -32 -38z"/>
<path d="M6370 4626 c0 -2 9 -6 20 -9 11 -3 20 -1 20 4 0 5 -9 9 -20 9 -11 0
-20 -2 -20 -4z"/>
<path d="M6468 4613 c6 -2 18 -2 25 0 6 3 1 5 -13 5 -14 0 -19 -2 -12 -5z"/>
<path d="M6541 4594 c0 -11 3 -14 6 -6 3 7 2 16 -1 19 -3 4 -6 -2 -5 -13z"/>
<path d="M6591 4594 c0 -11 3 -14 6 -6 3 7 2 16 -1 19 -3 4 -6 -2 -5 -13z"/>
<path d="M6620 4585 c0 -21 5 -25 28 -24 16 1 20 3 10 6 -10 2 -18 13 -18 24
0 10 -4 19 -10 19 -5 0 -10 -11 -10 -25z"/>
<path d="M6387 4593 c-11 -10 -8 -53 3 -53 6 0 10 14 10 30 0 31 -2 35 -13 23z"/>
<path d="M6446 4593 c-10 -10 -7 -53 4 -53 6 0 9 5 8 12 -2 6 8 14 22 18 14 3
20 8 15 11 -21 12 -43 17 -49 12z"/>
<path d="M6701 4570 c-7 -17 -11 -34 -7 -37 6 -7 28 46 24 59 -2 4 -9 -6 -17
-22z"/>
<path d="M6762 4580 c-14 -23 -16 -50 -3 -50 7 0 23 60 17 67 -1 1 -7 -7 -14
-17z"/>
<path d="M6801 4584 c0 -11 3 -14 6 -6 3 7 2 16 -1 19 -3 4 -6 -2 -5 -13z"/>
<path d="M6865 4554 c-3 -20 -4 -39 -1 -42 3 -3 7 0 7 6 3 26 4 31 12 38 10
10 9 34 -2 34 -5 0 -12 -16 -16 -36z"/>
<path d="M6911 4574 c0 -11 3 -14 6 -6 3 7 2 16 -1 19 -3 4 -6 -2 -5 -13z"/>
<path d="M6946 4565 c-17 -13 -33 -22 -38 -19 -4 3 -8 -2 -8 -10 0 -21 6 -20
30 4 11 11 27 20 35 20 8 0 15 7 15 15 0 19 1 19 -34 -10z"/>
<path d="M7072 4581 c-10 -6 -8 -10 8 -14 18 -5 20 -8 10 -27 -16 -30 -40 -37
-56 -15 -12 16 -14 17 -14 3 0 -41 65 -33 81 9 11 31 -7 58 -29 44z"/>
<path d="M7151 4564 c0 -11 3 -14 6 -6 3 7 2 16 -1 19 -3 4 -6 -2 -5 -13z"/>
<path d="M6526 4553 c-6 -14 -5 -15 5 -6 7 7 10 15 7 18 -3 3 -9 -2 -12 -12z"/>
<path d="M7030 4559 c0 -5 5 -7 10 -4 6 3 10 8 10 11 0 2 -4 4 -10 4 -5 0 -10
-5 -10 -11z"/>
<path d="M7233 4563 c16 -3 25 -9 21 -15 -4 -7 -2 -8 5 -4 18 12 2 26 -27 25
l-27 -2 28 -4z"/>
<path d="M6576 4545 c4 -8 8 -15 10 -15 2 0 4 7 4 15 0 8 -4 15 -10 15 -5 0
-7 -7 -4 -15z"/>
<path d="M6823 4553 c14 -4 15 -8 7 -18 -6 -7 -20 -11 -30 -8 -11 3 -20 0 -20
-6 0 -15 43 -14 58 1 19 19 14 38 -10 37 -18 -1 -19 -2 -5 -6z"/>
<path d="M7280 4539 c0 -11 4 -18 10 -14 5 3 7 12 3 20 -7 21 -13 19 -13 -6z"/>
<path d="M7380 4545 c-7 -9 -8 -15 -2 -15 5 0 12 7 16 15 3 8 4 15 2 15 -2 0
-9 -7 -16 -15z"/>
<path d="M7415 4550 c3 -5 1 -19 -5 -31 -9 -15 -19 -20 -36 -16 -14 2 -27 0
-30 -4 -3 -5 9 -9 25 -9 25 0 31 -4 32 -22 1 -17 3 -14 9 9 4 18 15 44 24 58
16 24 16 25 -4 25 -12 0 -18 -4 -15 -10z"/>
<path d="M6610 4540 c0 -5 5 -10 11 -10 5 0 7 5 4 10 -3 6 -8 10 -11 10 -2 0
-4 -4 -4 -10z"/>
<path d="M7190 4530 c-13 -24 -13 -30 1 -30 5 0 8 4 5 9 -7 11 22 23 35 15 5
-3 9 -1 9 4 0 19 -40 21 -50 2z"/>
<path d="M7327 4543 c-4 -3 -7 -13 -7 -22 1 -13 3 -13 11 2 11 19 8 33 -4 20z"/>
<path d="M6665 4490 c139 -8 421 -12 414 -6 -2 2 -125 6 -274 8 -175 4 -224 3
-140 -2z"/>
<path d="M4931 4479 c-44 -13 -110 -56 -139 -88 -30 -34 -62 -101 -69 -144 -6
-39 -14 -35 118 -53 47 -6 47 -6 58 29 36 108 169 141 248 62 58 -58 40 -142
-39 -187 -55 -32 -208 -82 -329 -109 -51 -11 -95 -22 -97 -24 -5 -5 -29 -175
-28 -199 1 -24 -5 -23 376 -70 113 -14 219 -27 237 -30 l32 -5 6 67 c4 37 9
74 11 83 3 13 -6 18 -43 23 -154 23 -253 35 -293 36 -54 2 -48 4 100 52 57 18
130 49 161 69 135 87 160 287 51 402 -15 16 -54 43 -87 59 -51 26 -73 31 -150
34 -49 2 -105 -1 -124 -7z"/>
<path d="M7115 4470 c4 -6 57 -10 126 -10 73 0 119 4 119 10 0 6 -49 10 -126
10 -81 0 -123 -4 -119 -10z"/>
<path d="M5700 4376 c-152 -32 -265 -163 -289 -332 -37 -259 142 -457 414
-458 133 -1 229 41 300 132 37 48 75 152 75 207 l0 32 -72 12 c-87 14 -296 41
-320 41 -13 0 -18 -14 -23 -65 -4 -36 -6 -68 -3 -70 2 -2 51 -11 108 -20 57
-9 106 -17 108 -19 10 -11 -23 -48 -61 -67 -55 -28 -156 -29 -218 -2 -176 78
-187 332 -19 427 120 68 269 26 345 -97 7 -12 33 -18 94 -23 l84 -7 -7 34 c-9
48 -52 128 -90 167 -41 44 -157 100 -231 112 -76 12 -125 11 -195 -4z"/>
<path d="M6332 4223 c-27 -200 -74 -552 -82 -613 -5 -36 -7 -66 -5 -69 7 -6
89 -20 125 -21 l36 0 22 183 c13 100 34 265 47 367 13 102 24 193 25 202 0 17
-15 22 -106 33 l-51 6 -11 -88z"/>
<path d="M6684 4225 c-136 -68 -166 -256 -57 -358 16 -15 77 -48 134 -73 57
-25 114 -54 126 -66 33 -30 31 -82 -3 -113 -32 -30 -73 -32 -129 -6 -47 22
-73 49 -84 87 -8 30 -23 37 -109 47 l-53 6 7 -47 c20 -140 128 -241 268 -250
97 -6 151 10 202 62 52 51 67 103 62 212 -5 121 -39 159 -189 209 -132 44
-173 100 -113 156 20 19 36 24 75 23 57 -1 96 -24 119 -71 16 -33 41 -43 106
-43 33 0 34 1 34 40 0 119 -124 210 -285 210 -45 0 -74 -7 -111 -25z"/>
<path d="M3990 3238 c12 -18 24 -41 27 -50 5 -18 33 -26 33 -10 0 4 -13 22
-30 40 -16 18 -30 37 -30 43 0 5 -5 9 -11 9 -6 0 -1 -15 11 -32z"/>
<path d="M4150 3085 c0 -3 18 -23 40 -45 57 -57 271 -160 331 -160 69 0 77 14
17 30 -29 7 -60 17 -68 21 -8 4 -46 20 -85 34 -38 15 -92 40 -120 56 -27 16
-58 32 -67 35 -10 4 -18 10 -18 14 0 4 -7 10 -15 14 -8 3 -15 3 -15 1z"/>
<path d="M6920 2900 c0 -5 5 -10 11 -10 5 0 7 5 4 10 -3 6 -8 10 -11 10 -2 0
-4 -4 -4 -10z"/>
<path d="M7178 2733 c7 -3 16 -2 19 1 4 3 -2 6 -13 5 -11 0 -14 -3 -6 -6z"/>
<path d="M7045 2720 l-40 -7 35 0 c19 -1 49 3 65 7 27 7 27 8 5 7 -14 0 -43
-3 -65 -7z"/>
</g>
</svg>
